:SAMPLES-PER-SECOND 30
:FULLY-SPECIFIED
:DEGREES
171
root  35.15098151 36.47528521 -14.80005069 8.868092537 -10.41880035 5.917901993
lowerback  -6.992699146 -1.662809968 -0.5029934645
upperback  -3.507970095 -1.705600023 -4.685649872
thorax  0.1722655147 -0.7118510604 -4.690853119
lowerneck  2.16215992 -19.67569923 -12.04889965
upperneck  2.299910069 -27.07299995 14.42310047
head  3.916490078 -13.37409973 4.543729782
lclavicle  0 -4.497500157e-015 -2.743230041e-014
lhumerus  -48.34960175 27.08779907 61.58580017
lradius  5.228657756e-007 -6.507048965e-006 29.99600029
lwrist  4.824992743e-007 -3.790274832e-007 -28.85230255
lhand  -4.453798173e-031 -37.54880142 -10.57530022
lfingers  90 7.125020027 -90
lthumb  95.09780034 -25.38949752 101.7531678
rclavicle  0 -4.497500157e-015 -2.743230041e-014
rhumerus  -0.01617637463 -35.07789993 7.288869858
rradius  -5.16745672e-007 2.214343908e-008 37.93349838
rwrist  -0.0001064338358 0.02974390797 -170.9409943
rhand  -1.771734989e-031 4.784029961 -7.616950035
rfingers  -90 -7.125020027 -90
rthumb  -85.02642003 -8.484519912 -59.46684463
rfemur  -14.53128338 16.23590088 9.31261158
rtibia  -2.011173487 -3.605075836 22.28983307
rfoot  0.4067621529 -25.04305077 -31.4910717
rtoes  3.875084048 19.63610089 -101.3963487
lfemur  -8.29805851 -18.22421074 -24.3471756
ltibia  3.639446735 -4.329911709 14.42576218
lfoot  1.833781958 -17.77272415 41.36407471
ltoes  -8.720869976 -18.06899025 -116.3152485
172
root  35.15096049 36.47922306 -14.80541079 8.865757942 -10.37703228 5.916333199
lowerback  -6.996630192 -1.665670037 -0.5130726099
upperback  -3.50854516 -1.70757997 -4.690489769
thorax  0.1746554375 -0.7131541371 -4.690774918
lowerneck  2.074300051 -19.70179939 -12.07219982
upperneck  2.446419954 -27.11519814 14.3725996
head  3.975519896 -13.38829994 4.510290146
lclavicle  0 -4.497500157e-015 -2.743230041e-014
lhumerus  -48.37860107 27.14439964 61.5603981
lradius  5.228657756e-007 -6.507048965e-006 29.97470093
lwrist  4.824992743e-007 -3.790274832e-007 -28.86580086
lhand  -4.451798094e-031 -37.51530075 -10.63510036
lfingers  90 7.125020027 -90
lthumb  95.09554972 -25.44926058 101.723054
rclavicle  0 -4.497500157e-015 -2.743230041e-014
rhumerus  -0.1951323897 -34.98970032 7.420467854
rradius  -5.16745672e-007 2.214343908e-008 37.94340134
rwrist  -0.0001064338358 0.02974390797 -171.0119934
rhand  -1.771622033e-031 4.740180016 -7.438690186
rfingers  -90 -7.125020027 -90
rthumb  -84.94509243 -8.635148667 -59.49601314
rfemur  -14.51791763 16.24451828 9.326695442
rtibia  -2.016543865 -3.577786922 22.2871418
rfoot  0.3859268427 -24.97965622 -31.58488655
rtoes  3.852903831 19.64029916 -101.3303518
lfemur  -8.371277809 -18.34016037 -24.31501007
ltibia  3.586579323 -4.380626202 14.53370285
lfoot  1.811328292 -17.71619034 41.32982635
ltoes  -8.697385166 -18.08001346 -116.239553
173
root  35.15225808 36.47904283 -14.80952886 8.868286133 -10.33973694 5.908872604
lowerback  -7.007500172 -1.673020005 -0.5203034878
upperback  -3.505569935 -1.715459943 -4.696539879
thorax  0.1759870052 -0.7142842412 -4.687870026
lowerneck  2.040999889 -19.69930077 -12.13689995
upperneck  2.534150124 -27.12179947 14.39690018
head  4.020219803 -13.38759995 4.51335001
lclavicle  0 -4.497500157e-015 -2.743230041e-014
lhumerus  -48.43659973 27.27000046 61.47689819
lradius  5.228657756e-007 -6.507048965e-006 29.95490265
lwrist  4.824992743e-007 -3.790274832e-007 -29.03479958
lhand  -0 -37.48469925 -10.64169979
lfingers  90 7.125020027 -90
lthumb  95.08271006 -25.45687154 101.6910042
rclavicle  0 -4.497500157e-015 -2.743230041e-014
rhumerus  -0.3811337352 -34.9967041 7.48116827
rradius  -5.16745672e-007 2.214343908e-008 38.04520035
rwrist  -0.0001064338358 0.02974390797 -170.5939941
rhand  -1.771442025e-031 4.669439793 -7.400259972
rfingers  -90 -7.125020027 -90
rthumb  -84.94188203 -8.663678945 -59.56200401
rfemur  -14.51015282 16.24069405 9.341249466
rtibia  -2.023743391 -3.590653896 22.27988052
rfoot  0.4000672102 -24.99768639 -31.56223106
rtoes  3.882238788 19.63474127 -101.4176404
lfemur  -8.446751595 -18.41605377 -24.27306366
ltibia  3.528715372 -4.41958046 14.65350151
lfoot  1.80900979 -17.69604683 41.31463623
ltoes  -8.699772685 -18.07889452 -116.2472463
174
root  35.15431261 36.47500887 -14.812887 8.872372627 -10.32111835 5.904509068
lowerback  -6.996549606 -1.680040002 -0.5386912823
upperback  -3.500299931 -1.723970056 -4.697060108
thorax  0.1753160059 -0.7153799534 -4.678299904
lowerneck  2.004669905 -19.72629929 -12.22290039
upperneck  2.605479956 -27.17020035 14.46310043
head  4.074629784 -13.40639973 4.523880005
lclavicle  0 -4.497500157e-015 -2.743230041e-014
lhumerus  -48.44789886 27.22120094 61.51670074
lradius  5.228657756e-007 -6.507048965e-006 29.95269966
lwrist  4.824992743e-007 -3.790274832e-007 -28.95059967
lhand  -0 -37.44829941 -10.54469967
lfingers  90 7.125020027 -90
lthumb  95.04398143 -25.36320994 101.6428053
rclavicle  0 -4.497500157e-015 -2.743230041e-014
rhumerus  -0.5630919933 -34.88470078 7.555897713
rradius  -5.16745672e-007 2.214343908e-008 38.09469986
rwrist  -0.0001064338358 0.02974390797 -170.5679932
rhand  -1.771493782e-031 4.689889908 -7.321790218
rfingers  -90 -7.125020027 -90
rthumb  -84.89686875 -8.732641804 -59.53599597
rfemur  -14.51002216 16.19719887 9.342015266
rtibia  -2.023682594 -3.611979008 22.26465607
rfoot  0.4039070308 -25.03245926 -31.54417801
rtoes  3.881384704 19.63490371 -101.4150987
lfemur  -8.549897194 -18.43584251 -24.2177887
ltibia  3.464333773 -4.435077667 14.77382374
lfoot  1.812629104 -17.72256851 41.30286789
ltoes  -8.695706598 -18.08079991 -116.2341444
